<mxfile host="app.diagrams.net" modified="2023-01-02T20:48:44.397Z" agent="5.0 (X11; Ubuntu)" version="20.7.4" etag="n6IodfOXtJsFGH1mIQTh" type="github">
  <diagram id="JXbd3Xh_fMig0dIp4bEp" name="PÃ¡gina-1">
    <mxGraphModel dx="1687" dy="2096" grid="1" gridSize="10" guides="1" tooltips="1" connect="1" arrows="1" fold="1" page="1" pageScale="1" pageWidth="1920" pageHeight="1200" math="0" shadow="0">
      <root>
        <mxCell id="0" />
        <mxCell id="1" parent="0" />
        <mxCell id="tiq8Vk0MEegw2YPeXYxS-1" value="CSS" style="ellipse;whiteSpace=wrap;html=1;fillColor=#1ba1e2;fontColor=#ffffff;strokeColor=#006EAF;" vertex="1" parent="1">
          <mxGeometry x="674" y="-350" width="120" height="80" as="geometry" />
        </mxCell>
        <mxCell id="tiq8Vk0MEegw2YPeXYxS-2" value="&lt;font style=&quot;font-size: 28px;&quot;&gt;Front-End&lt;/font&gt;" style="ellipse;whiteSpace=wrap;html=1;fillColor=#008a00;fontColor=#ffffff;strokeColor=#005700;" vertex="1" parent="1">
          <mxGeometry x="1040" y="-250" width="180" height="120" as="geometry" />
        </mxCell>
        <mxCell id="tiq8Vk0MEegw2YPeXYxS-3" value="&lt;div style=&quot;font-size: 12px;&quot;&gt;&lt;font style=&quot;font-size: 12px;&quot;&gt;HTML&lt;/font&gt;&lt;/div&gt;" style="ellipse;whiteSpace=wrap;html=1;fontSize=28;fillColor=#fa6800;fontColor=#000000;strokeColor=#C73500;" vertex="1" parent="1">
          <mxGeometry x="1480" y="-350" width="120" height="80" as="geometry" />
        </mxCell>
        <mxCell id="tiq8Vk0MEegw2YPeXYxS-5" value="" style="curved=1;endArrow=classic;html=1;rounded=0;fontSize=12;exitX=0;exitY=0.5;exitDx=0;exitDy=0;" edge="1" parent="1" source="tiq8Vk0MEegw2YPeXYxS-2" target="tiq8Vk0MEegw2YPeXYxS-1">
          <mxGeometry width="50" height="50" relative="1" as="geometry">
            <mxPoint x="770" y="-190" as="sourcePoint" />
            <mxPoint x="820" y="-240" as="targetPoint" />
            <Array as="points">
              <mxPoint x="820" y="-190" />
              <mxPoint x="770" y="-240" />
            </Array>
          </mxGeometry>
        </mxCell>
        <mxCell id="tiq8Vk0MEegw2YPeXYxS-7" value="" style="curved=1;endArrow=classic;html=1;rounded=0;fontSize=12;entryX=0.5;entryY=1;entryDx=0;entryDy=0;exitX=1;exitY=0.5;exitDx=0;exitDy=0;" edge="1" parent="1" source="tiq8Vk0MEegw2YPeXYxS-2" target="tiq8Vk0MEegw2YPeXYxS-3">
          <mxGeometry width="50" height="50" relative="1" as="geometry">
            <mxPoint x="1460" y="-210" as="sourcePoint" />
            <mxPoint x="1550" y="-250" as="targetPoint" />
            <Array as="points">
              <mxPoint x="1500" y="-200" />
              <mxPoint x="1540" y="-240" />
            </Array>
          </mxGeometry>
        </mxCell>
        <mxCell id="tiq8Vk0MEegw2YPeXYxS-10" value="Cores" style="ellipse;whiteSpace=wrap;html=1;fillColor=#1ba1e2;fontColor=#ffffff;strokeColor=#006EAF;" vertex="1" parent="1">
          <mxGeometry x="440" y="-335" width="90" height="50" as="geometry" />
        </mxCell>
        <mxCell id="tiq8Vk0MEegw2YPeXYxS-21" style="edgeStyle=orthogonalEdgeStyle;rounded=0;orthogonalLoop=1;jettySize=auto;html=1;fontSize=12;" edge="1" parent="1" source="tiq8Vk0MEegw2YPeXYxS-12" target="tiq8Vk0MEegw2YPeXYxS-20">
          <mxGeometry relative="1" as="geometry" />
        </mxCell>
        <mxCell id="tiq8Vk0MEegw2YPeXYxS-12" value="Fontes" style="ellipse;whiteSpace=wrap;html=1;fillColor=#1ba1e2;fontColor=#ffffff;strokeColor=#006EAF;" vertex="1" parent="1">
          <mxGeometry x="430" y="-510" width="90" height="50" as="geometry" />
        </mxCell>
        <mxCell id="tiq8Vk0MEegw2YPeXYxS-14" value="Bordas" style="ellipse;whiteSpace=wrap;html=1;fillColor=#1ba1e2;fontColor=#ffffff;strokeColor=#006EAF;" vertex="1" parent="1">
          <mxGeometry x="450" y="-110" width="90" height="50" as="geometry" />
        </mxCell>
        <mxCell id="tiq8Vk0MEegw2YPeXYxS-16" value="font-weight:" style="ellipse;whiteSpace=wrap;html=1;fillColor=#1ba1e2;fontColor=#ffffff;strokeColor=#006EAF;" vertex="1" parent="1">
          <mxGeometry x="360" y="-610" width="80" height="40" as="geometry" />
        </mxCell>
        <mxCell id="tiq8Vk0MEegw2YPeXYxS-20" value="color:" style="ellipse;whiteSpace=wrap;html=1;fillColor=#1ba1e2;fontColor=#ffffff;strokeColor=#006EAF;fontSize=12;" vertex="1" parent="1">
          <mxGeometry x="280" y="-505" width="70" height="40" as="geometry" />
        </mxCell>
        <mxCell id="tiq8Vk0MEegw2YPeXYxS-29" value="" style="endArrow=classic;html=1;rounded=0;fontSize=12;exitX=0;exitY=0;exitDx=0;exitDy=0;" edge="1" parent="1" source="tiq8Vk0MEegw2YPeXYxS-12" target="tiq8Vk0MEegw2YPeXYxS-31">
          <mxGeometry width="50" height="50" relative="1" as="geometry">
            <mxPoint x="390" y="-510" as="sourcePoint" />
            <mxPoint x="360" y="-580" as="targetPoint" />
          </mxGeometry>
        </mxCell>
        <mxCell id="tiq8Vk0MEegw2YPeXYxS-31" value="font-family:" style="ellipse;whiteSpace=wrap;html=1;fillColor=#1ba1e2;fontColor=#ffffff;strokeColor=#006EAF;" vertex="1" parent="1">
          <mxGeometry x="300" y="-570" width="80" height="40" as="geometry" />
        </mxCell>
        <mxCell id="tiq8Vk0MEegw2YPeXYxS-32" value="" style="endArrow=classic;html=1;rounded=0;fontSize=12;entryX=0.5;entryY=0;entryDx=0;entryDy=0;exitX=1;exitY=1;exitDx=0;exitDy=0;" edge="1" parent="1" source="tiq8Vk0MEegw2YPeXYxS-20" target="tiq8Vk0MEegw2YPeXYxS-10">
          <mxGeometry width="50" height="50" relative="1" as="geometry">
            <mxPoint x="360" y="-370" as="sourcePoint" />
            <mxPoint x="410" y="-420" as="targetPoint" />
          </mxGeometry>
        </mxCell>
        <mxCell id="tiq8Vk0MEegw2YPeXYxS-33" value="" style="endArrow=classic;html=1;rounded=0;fontSize=12;" edge="1" parent="1" target="tiq8Vk0MEegw2YPeXYxS-34">
          <mxGeometry width="50" height="50" relative="1" as="geometry">
            <mxPoint x="500" y="-505" as="sourcePoint" />
            <mxPoint x="570" y="-590" as="targetPoint" />
          </mxGeometry>
        </mxCell>
        <mxCell id="tiq8Vk0MEegw2YPeXYxS-34" value="font-size:" style="ellipse;whiteSpace=wrap;html=1;fillColor=#1ba1e2;fontColor=#ffffff;strokeColor=#006EAF;" vertex="1" parent="1">
          <mxGeometry x="430" y="-630" width="80" height="40" as="geometry" />
        </mxCell>
        <mxCell id="tiq8Vk0MEegw2YPeXYxS-35" value="" style="shape=flexArrow;endArrow=classic;html=1;rounded=0;fontSize=12;width=6;endSize=5.79;entryX=1;entryY=1;entryDx=0;entryDy=0;" edge="1" parent="1" source="tiq8Vk0MEegw2YPeXYxS-1" target="tiq8Vk0MEegw2YPeXYxS-12">
          <mxGeometry width="50" height="50" relative="1" as="geometry">
            <mxPoint x="700" y="-350" as="sourcePoint" />
            <mxPoint x="570" y="-420" as="targetPoint" />
          </mxGeometry>
        </mxCell>
        <mxCell id="tiq8Vk0MEegw2YPeXYxS-36" value="" style="shape=flexArrow;endArrow=classic;html=1;rounded=0;fontSize=12;width=6;endSize=5.79;entryX=1;entryY=0.5;entryDx=0;entryDy=0;" edge="1" parent="1" source="tiq8Vk0MEegw2YPeXYxS-1" target="tiq8Vk0MEegw2YPeXYxS-10">
          <mxGeometry width="50" height="50" relative="1" as="geometry">
            <mxPoint x="705.5403532971233" y="-181.479227014765" as="sourcePoint" />
            <mxPoint x="519.9998051533946" y="-310.0023304703365" as="targetPoint" />
          </mxGeometry>
        </mxCell>
        <mxCell id="tiq8Vk0MEegw2YPeXYxS-38" value="" style="shape=flexArrow;endArrow=classic;html=1;rounded=0;fontSize=12;width=6;endSize=5.79;" edge="1" parent="1" source="tiq8Vk0MEegw2YPeXYxS-1" target="tiq8Vk0MEegw2YPeXYxS-14">
          <mxGeometry width="50" height="50" relative="1" as="geometry">
            <mxPoint x="684" y="-140" as="sourcePoint" />
            <mxPoint x="540" y="-140" as="targetPoint" />
          </mxGeometry>
        </mxCell>
        <mxCell id="tiq8Vk0MEegw2YPeXYxS-39" value="@import url()" style="ellipse;whiteSpace=wrap;html=1;fillColor=#1ba1e2;fontColor=#ffffff;strokeColor=#006EAF;" vertex="1" parent="1">
          <mxGeometry x="520" y="-620" width="80" height="40" as="geometry" />
        </mxCell>
        <mxCell id="tiq8Vk0MEegw2YPeXYxS-40" value="" style="endArrow=classic;html=1;rounded=0;fontSize=12;" edge="1" parent="1" target="tiq8Vk0MEegw2YPeXYxS-39">
          <mxGeometry width="50" height="50" relative="1" as="geometry">
            <mxPoint x="520" y="-490" as="sourcePoint" />
            <mxPoint x="570" y="-540" as="targetPoint" />
          </mxGeometry>
        </mxCell>
        <mxCell id="tiq8Vk0MEegw2YPeXYxS-81" value="" style="edgeStyle=none;rounded=0;orthogonalLoop=1;jettySize=auto;html=1;fontSize=10;entryX=1;entryY=0.5;entryDx=0;entryDy=0;" edge="1" parent="1" source="tiq8Vk0MEegw2YPeXYxS-41" target="tiq8Vk0MEegw2YPeXYxS-78">
          <mxGeometry relative="1" as="geometry" />
        </mxCell>
        <mxCell id="tiq8Vk0MEegw2YPeXYxS-41" value="blue" style="ellipse;whiteSpace=wrap;html=1;fillColor=#0000ff;fontColor=#ffffff;strokeColor=#006EAF;" vertex="1" parent="1">
          <mxGeometry x="300" y="-270" width="65" height="40" as="geometry" />
        </mxCell>
        <mxCell id="tiq8Vk0MEegw2YPeXYxS-62" value="" style="edgeStyle=none;rounded=0;orthogonalLoop=1;jettySize=auto;html=1;fontSize=9;entryX=1;entryY=0.5;entryDx=0;entryDy=0;" edge="1" parent="1" source="tiq8Vk0MEegw2YPeXYxS-43" target="tiq8Vk0MEegw2YPeXYxS-56">
          <mxGeometry relative="1" as="geometry" />
        </mxCell>
        <mxCell id="tiq8Vk0MEegw2YPeXYxS-43" value="red" style="ellipse;whiteSpace=wrap;html=1;fillColor=#FF0000;fontColor=#ffffff;strokeColor=#B20000;" vertex="1" parent="1">
          <mxGeometry x="300" y="-390" width="65" height="40" as="geometry" />
        </mxCell>
        <mxCell id="tiq8Vk0MEegw2YPeXYxS-74" value="" style="edgeStyle=none;rounded=0;orthogonalLoop=1;jettySize=auto;html=1;fontSize=10;entryX=1;entryY=0.5;entryDx=0;entryDy=0;" edge="1" parent="1" source="tiq8Vk0MEegw2YPeXYxS-44" target="tiq8Vk0MEegw2YPeXYxS-71">
          <mxGeometry relative="1" as="geometry" />
        </mxCell>
        <mxCell id="tiq8Vk0MEegw2YPeXYxS-44" value="green" style="ellipse;whiteSpace=wrap;html=1;fillColor=#00ff00;fontColor=#ffffff;strokeColor=#2D7600;" vertex="1" parent="1">
          <mxGeometry x="300" y="-330" width="65" height="40" as="geometry" />
        </mxCell>
        <mxCell id="tiq8Vk0MEegw2YPeXYxS-45" value="" style="endArrow=classic;html=1;rounded=0;fontSize=12;entryX=1;entryY=0.5;entryDx=0;entryDy=0;" edge="1" parent="1" source="tiq8Vk0MEegw2YPeXYxS-10" target="tiq8Vk0MEegw2YPeXYxS-44">
          <mxGeometry width="50" height="50" relative="1" as="geometry">
            <mxPoint x="385" y="-295" as="sourcePoint" />
            <mxPoint x="435" y="-345" as="targetPoint" />
          </mxGeometry>
        </mxCell>
        <mxCell id="tiq8Vk0MEegw2YPeXYxS-46" value="" style="endArrow=classic;html=1;rounded=0;fontSize=12;entryX=1;entryY=0.5;entryDx=0;entryDy=0;" edge="1" parent="1" source="tiq8Vk0MEegw2YPeXYxS-10" target="tiq8Vk0MEegw2YPeXYxS-43">
          <mxGeometry width="50" height="50" relative="1" as="geometry">
            <mxPoint x="350" y="-260" as="sourcePoint" />
            <mxPoint x="400" y="-310" as="targetPoint" />
          </mxGeometry>
        </mxCell>
        <mxCell id="tiq8Vk0MEegw2YPeXYxS-47" value="" style="endArrow=classic;html=1;rounded=0;fontSize=12;entryX=1;entryY=0.5;entryDx=0;entryDy=0;exitX=0;exitY=1;exitDx=0;exitDy=0;" edge="1" parent="1" source="tiq8Vk0MEegw2YPeXYxS-10" target="tiq8Vk0MEegw2YPeXYxS-41">
          <mxGeometry width="50" height="50" relative="1" as="geometry">
            <mxPoint x="350" y="-230" as="sourcePoint" />
            <mxPoint x="400" y="-280" as="targetPoint" />
          </mxGeometry>
        </mxCell>
        <mxCell id="tiq8Vk0MEegw2YPeXYxS-61" value="" style="edgeStyle=none;rounded=0;orthogonalLoop=1;jettySize=auto;html=1;fontSize=7;exitX=0.417;exitY=0.625;exitDx=0;exitDy=0;exitPerimeter=0;" edge="1" parent="1" source="tiq8Vk0MEegw2YPeXYxS-49" target="tiq8Vk0MEegw2YPeXYxS-60">
          <mxGeometry relative="1" as="geometry">
            <mxPoint x="65" y="-440" as="sourcePoint" />
          </mxGeometry>
        </mxCell>
        <mxCell id="tiq8Vk0MEegw2YPeXYxS-49" value="rgb()" style="ellipse;whiteSpace=wrap;html=1;fillColor=#1ba1e2;fontColor=#ffffff;strokeColor=#006EAF;fontSize=12;" vertex="1" parent="1">
          <mxGeometry x="40" y="-505" width="60" height="40" as="geometry" />
        </mxCell>
        <mxCell id="tiq8Vk0MEegw2YPeXYxS-59" value="" style="edgeStyle=none;rounded=0;orthogonalLoop=1;jettySize=auto;html=1;fontSize=7;" edge="1" parent="1" source="tiq8Vk0MEegw2YPeXYxS-50" target="tiq8Vk0MEegw2YPeXYxS-58">
          <mxGeometry relative="1" as="geometry" />
        </mxCell>
        <mxCell id="tiq8Vk0MEegw2YPeXYxS-50" value="hexadecimal" style="ellipse;whiteSpace=wrap;html=1;fillColor=#1ba1e2;fontColor=#ffffff;strokeColor=#006EAF;fontSize=12;" vertex="1" parent="1">
          <mxGeometry x="110" y="-505" width="80" height="40" as="geometry" />
        </mxCell>
        <mxCell id="tiq8Vk0MEegw2YPeXYxS-57" value="" style="edgeStyle=none;rounded=0;orthogonalLoop=1;jettySize=auto;html=1;fontSize=12;" edge="1" parent="1" source="tiq8Vk0MEegw2YPeXYxS-51" target="tiq8Vk0MEegw2YPeXYxS-56">
          <mxGeometry relative="1" as="geometry" />
        </mxCell>
        <mxCell id="tiq8Vk0MEegw2YPeXYxS-51" value="hsl()" style="ellipse;whiteSpace=wrap;html=1;fillColor=#1ba1e2;fontColor=#ffffff;strokeColor=#006EAF;fontSize=12;" vertex="1" parent="1">
          <mxGeometry x="200" y="-505" width="60" height="40" as="geometry" />
        </mxCell>
        <mxCell id="tiq8Vk0MEegw2YPeXYxS-52" value="" style="endArrow=none;html=1;rounded=0;fontSize=12;" edge="1" parent="1">
          <mxGeometry width="50" height="50" relative="1" as="geometry">
            <mxPoint x="100" y="-485.24" as="sourcePoint" />
            <mxPoint x="110" y="-485" as="targetPoint" />
          </mxGeometry>
        </mxCell>
        <mxCell id="tiq8Vk0MEegw2YPeXYxS-53" value="" style="endArrow=none;html=1;rounded=0;fontSize=12;" edge="1" parent="1" target="tiq8Vk0MEegw2YPeXYxS-51">
          <mxGeometry width="50" height="50" relative="1" as="geometry">
            <mxPoint x="190" y="-485.24" as="sourcePoint" />
            <mxPoint x="200" y="-460" as="targetPoint" />
          </mxGeometry>
        </mxCell>
        <mxCell id="tiq8Vk0MEegw2YPeXYxS-54" value="" style="endArrow=classic;html=1;rounded=0;fontSize=12;entryX=1;entryY=0.5;entryDx=0;entryDy=0;" edge="1" parent="1" target="tiq8Vk0MEegw2YPeXYxS-51">
          <mxGeometry width="50" height="50" relative="1" as="geometry">
            <mxPoint x="280" y="-485" as="sourcePoint" />
            <mxPoint x="260" y="-485.24" as="targetPoint" />
          </mxGeometry>
        </mxCell>
        <mxCell id="tiq8Vk0MEegw2YPeXYxS-56" value="&lt;div align=&quot;left&quot;&gt;&lt;font style=&quot;font-size: 7px;&quot;&gt;hsl(0, 100%, 50%)&lt;/font&gt;&lt;br&gt;&lt;/div&gt;" style="ellipse;whiteSpace=wrap;html=1;fillColor=#ff0000;fontColor=#ffffff;strokeColor=#FF0000;fontSize=12;" vertex="1" parent="1">
          <mxGeometry x="200" y="-390" width="60" height="40" as="geometry" />
        </mxCell>
        <mxCell id="tiq8Vk0MEegw2YPeXYxS-58" value="&lt;div&gt;#ff0000&lt;/div&gt;" style="ellipse;whiteSpace=wrap;html=1;fillColor=#FF0000;fontColor=#ffffff;strokeColor=#FF0000;fontSize=12;" vertex="1" parent="1">
          <mxGeometry x="120" y="-390" width="60" height="40" as="geometry" />
        </mxCell>
        <mxCell id="tiq8Vk0MEegw2YPeXYxS-60" value="&lt;font style=&quot;font-size: 9px;&quot;&gt;rgb(255, 0, 0)&lt;/font&gt;" style="ellipse;whiteSpace=wrap;html=1;fillColor=#FF0000;fontColor=#ffffff;strokeColor=#FF0000;fontSize=12;" vertex="1" parent="1">
          <mxGeometry x="30" y="-390" width="70" height="40" as="geometry" />
        </mxCell>
        <mxCell id="tiq8Vk0MEegw2YPeXYxS-67" value="" style="endArrow=none;html=1;rounded=0;fontSize=9;entryX=0;entryY=0.5;entryDx=0;entryDy=0;exitX=1;exitY=0.5;exitDx=0;exitDy=0;" edge="1" parent="1" source="tiq8Vk0MEegw2YPeXYxS-58" target="tiq8Vk0MEegw2YPeXYxS-56">
          <mxGeometry width="50" height="50" relative="1" as="geometry">
            <mxPoint x="160" y="-290" as="sourcePoint" />
            <mxPoint x="210" y="-340" as="targetPoint" />
          </mxGeometry>
        </mxCell>
        <mxCell id="tiq8Vk0MEegw2YPeXYxS-68" value="" style="endArrow=none;html=1;rounded=0;fontSize=9;exitX=1;exitY=0.5;exitDx=0;exitDy=0;entryX=0;entryY=0.5;entryDx=0;entryDy=0;" edge="1" parent="1" source="tiq8Vk0MEegw2YPeXYxS-60" target="tiq8Vk0MEegw2YPeXYxS-58">
          <mxGeometry width="50" height="50" relative="1" as="geometry">
            <mxPoint x="80" y="-285" as="sourcePoint" />
            <mxPoint x="130" y="-335" as="targetPoint" />
          </mxGeometry>
        </mxCell>
        <mxCell id="tiq8Vk0MEegw2YPeXYxS-71" value="&lt;font style=&quot;font-size: 6px;&quot;&gt;hsl(120, 100%, 50%)&lt;/font&gt;" style="ellipse;whiteSpace=wrap;html=1;fillColor=#00ff00;fontColor=#ffffff;strokeColor=#2D7600;" vertex="1" parent="1">
          <mxGeometry x="200" y="-330" width="57.5" height="40" as="geometry" />
        </mxCell>
        <mxCell id="tiq8Vk0MEegw2YPeXYxS-72" value="#00ff00" style="ellipse;whiteSpace=wrap;html=1;fillColor=#00ff00;fontColor=#ffffff;strokeColor=#2D7600;" vertex="1" parent="1">
          <mxGeometry x="117.5" y="-330" width="62.5" height="40" as="geometry" />
        </mxCell>
        <mxCell id="tiq8Vk0MEegw2YPeXYxS-73" value="&lt;font style=&quot;font-size: 10px;&quot;&gt;rgb(0, 255, 0)&lt;/font&gt;" style="ellipse;whiteSpace=wrap;html=1;fillColor=#00ff00;fontColor=#ffffff;strokeColor=#2D7600;" vertex="1" parent="1">
          <mxGeometry x="30" y="-330" width="70" height="40" as="geometry" />
        </mxCell>
        <mxCell id="tiq8Vk0MEegw2YPeXYxS-75" value="" style="endArrow=none;html=1;rounded=0;fontSize=9;exitX=1;exitY=0.5;exitDx=0;exitDy=0;entryX=0;entryY=0.5;entryDx=0;entryDy=0;" edge="1" parent="1" source="tiq8Vk0MEegw2YPeXYxS-73" target="tiq8Vk0MEegw2YPeXYxS-72">
          <mxGeometry width="50" height="50" relative="1" as="geometry">
            <mxPoint x="99.99999999999875" y="-310.24" as="sourcePoint" />
            <mxPoint x="120" y="-310" as="targetPoint" />
          </mxGeometry>
        </mxCell>
        <mxCell id="tiq8Vk0MEegw2YPeXYxS-76" value="" style="endArrow=none;html=1;rounded=0;fontSize=9;exitX=1;exitY=0.5;exitDx=0;exitDy=0;" edge="1" parent="1" source="tiq8Vk0MEegw2YPeXYxS-72" target="tiq8Vk0MEegw2YPeXYxS-71">
          <mxGeometry width="50" height="50" relative="1" as="geometry">
            <mxPoint x="177.5" y="-275" as="sourcePoint" />
            <mxPoint x="190" y="-275" as="targetPoint" />
          </mxGeometry>
        </mxCell>
        <mxCell id="tiq8Vk0MEegw2YPeXYxS-77" style="edgeStyle=none;rounded=0;orthogonalLoop=1;jettySize=auto;html=1;exitX=0;exitY=0.5;exitDx=0;exitDy=0;fontSize=10;" edge="1" parent="1" source="tiq8Vk0MEegw2YPeXYxS-71" target="tiq8Vk0MEegw2YPeXYxS-71">
          <mxGeometry relative="1" as="geometry" />
        </mxCell>
        <mxCell id="tiq8Vk0MEegw2YPeXYxS-78" value="&lt;font style=&quot;font-size: 6px;&quot;&gt;hsl(240, 100%, 50%)&lt;/font&gt;" style="ellipse;whiteSpace=wrap;html=1;fillColor=#0000ff;fontColor=#ffffff;strokeColor=#006EAF;" vertex="1" parent="1">
          <mxGeometry x="200" y="-270" width="60" height="40" as="geometry" />
        </mxCell>
        <mxCell id="tiq8Vk0MEegw2YPeXYxS-79" value="#0000ff" style="ellipse;whiteSpace=wrap;html=1;fillColor=#0000ff;fontColor=#ffffff;strokeColor=#006EAF;" vertex="1" parent="1">
          <mxGeometry x="120" y="-270" width="62.5" height="40" as="geometry" />
        </mxCell>
        <mxCell id="tiq8Vk0MEegw2YPeXYxS-80" value="&lt;font style=&quot;font-size: 10px;&quot;&gt;rgb(0, 0, 255)&lt;/font&gt;" style="ellipse;whiteSpace=wrap;html=1;fillColor=#0000ff;fontColor=#ffffff;strokeColor=#006EAF;" vertex="1" parent="1">
          <mxGeometry x="35" y="-270" width="65" height="40" as="geometry" />
        </mxCell>
        <mxCell id="tiq8Vk0MEegw2YPeXYxS-82" value="" style="endArrow=none;html=1;rounded=0;fontSize=9;exitX=1;exitY=0.5;exitDx=0;exitDy=0;entryX=0;entryY=0.5;entryDx=0;entryDy=0;" edge="1" parent="1" source="tiq8Vk0MEegw2YPeXYxS-79" target="tiq8Vk0MEegw2YPeXYxS-78">
          <mxGeometry width="50" height="50" relative="1" as="geometry">
            <mxPoint x="182.5" y="-250.20000000000005" as="sourcePoint" />
            <mxPoint x="190" y="-250" as="targetPoint" />
          </mxGeometry>
        </mxCell>
        <mxCell id="tiq8Vk0MEegw2YPeXYxS-83" value="" style="endArrow=none;html=1;rounded=0;fontSize=9;exitX=1;exitY=0.5;exitDx=0;exitDy=0;entryX=0;entryY=0.5;entryDx=0;entryDy=0;" edge="1" parent="1" source="tiq8Vk0MEegw2YPeXYxS-80" target="tiq8Vk0MEegw2YPeXYxS-79">
          <mxGeometry width="50" height="50" relative="1" as="geometry">
            <mxPoint x="110" y="-300" as="sourcePoint" />
            <mxPoint x="110" y="-270" as="targetPoint" />
          </mxGeometry>
        </mxCell>
        <mxCell id="tiq8Vk0MEegw2YPeXYxS-87" value="" style="edgeStyle=none;rounded=0;orthogonalLoop=1;jettySize=auto;html=1;fontSize=10;entryX=1;entryY=0.5;entryDx=0;entryDy=0;" edge="1" parent="1" source="tiq8Vk0MEegw2YPeXYxS-84" target="tiq8Vk0MEegw2YPeXYxS-86">
          <mxGeometry relative="1" as="geometry" />
        </mxCell>
        <mxCell id="tiq8Vk0MEegw2YPeXYxS-106" value="" style="edgeStyle=none;rounded=0;orthogonalLoop=1;jettySize=auto;html=1;fontSize=8;" edge="1" parent="1" source="tiq8Vk0MEegw2YPeXYxS-84" target="tiq8Vk0MEegw2YPeXYxS-105">
          <mxGeometry relative="1" as="geometry" />
        </mxCell>
        <mxCell id="tiq8Vk0MEegw2YPeXYxS-84" value="border:" style="rounded=0;whiteSpace=wrap;html=1;fontSize=10;" vertex="1" parent="1">
          <mxGeometry x="320" y="-100" width="57.5" height="30" as="geometry" />
        </mxCell>
        <mxCell id="tiq8Vk0MEegw2YPeXYxS-85" value="" style="endArrow=classic;html=1;rounded=0;fontSize=10;entryX=1;entryY=0.5;entryDx=0;entryDy=0;exitX=0;exitY=0.5;exitDx=0;exitDy=0;" edge="1" parent="1" source="tiq8Vk0MEegw2YPeXYxS-14" target="tiq8Vk0MEegw2YPeXYxS-84">
          <mxGeometry width="50" height="50" relative="1" as="geometry">
            <mxPoint x="490" y="-160" as="sourcePoint" />
            <mxPoint x="370" y="-180" as="targetPoint" />
          </mxGeometry>
        </mxCell>
        <mxCell id="tiq8Vk0MEegw2YPeXYxS-86" value="&lt;div&gt;border-top:&lt;/div&gt;" style="rounded=0;whiteSpace=wrap;html=1;fontSize=10;fillColor=#FFFFFF;strokeColor=none;" vertex="1" parent="1">
          <mxGeometry x="182.5" y="-190" width="57.5" height="30" as="geometry" />
        </mxCell>
        <mxCell id="tiq8Vk0MEegw2YPeXYxS-90" value="&lt;div&gt;border-right:&lt;/div&gt;" style="rounded=0;whiteSpace=wrap;html=1;fontSize=10;strokeColor=none;" vertex="1" parent="1">
          <mxGeometry x="182.5" y="-150" width="57.5" height="30" as="geometry" />
        </mxCell>
        <mxCell id="tiq8Vk0MEegw2YPeXYxS-91" value="&lt;div&gt;border-left:&lt;/div&gt;" style="rounded=0;whiteSpace=wrap;html=1;fontSize=10;strokeColor=none;" vertex="1" parent="1">
          <mxGeometry x="182.5" y="-100" width="57.5" height="30" as="geometry" />
        </mxCell>
        <mxCell id="tiq8Vk0MEegw2YPeXYxS-92" value="&lt;div&gt;&lt;font style=&quot;font-size: 8px;&quot;&gt;border-bottom:&lt;/font&gt;&lt;/div&gt;" style="rounded=0;whiteSpace=wrap;html=1;fontSize=10;strokeColor=none;" vertex="1" parent="1">
          <mxGeometry x="182.5" y="-60" width="57.5" height="30" as="geometry" />
        </mxCell>
        <mxCell id="tiq8Vk0MEegw2YPeXYxS-93" value="" style="endArrow=none;html=1;rounded=0;fontSize=8;" edge="1" parent="1">
          <mxGeometry width="50" height="50" relative="1" as="geometry">
            <mxPoint x="180" y="-191" as="sourcePoint" />
            <mxPoint x="240" y="-191" as="targetPoint" />
          </mxGeometry>
        </mxCell>
        <mxCell id="tiq8Vk0MEegw2YPeXYxS-94" value="" style="endArrow=none;html=1;rounded=0;fontSize=8;" edge="1" parent="1">
          <mxGeometry x="0.3333" y="10" width="50" height="50" relative="1" as="geometry">
            <mxPoint x="240" y="-120" as="sourcePoint" />
            <mxPoint x="240" y="-150" as="targetPoint" />
            <mxPoint as="offset" />
          </mxGeometry>
        </mxCell>
        <mxCell id="tiq8Vk0MEegw2YPeXYxS-95" value="" style="endArrow=none;html=1;rounded=0;fontSize=8;" edge="1" parent="1">
          <mxGeometry x="-1" width="50" height="50" relative="1" as="geometry">
            <mxPoint x="182.5" y="-70" as="sourcePoint" />
            <mxPoint x="182.5" y="-100" as="targetPoint" />
            <mxPoint as="offset" />
          </mxGeometry>
        </mxCell>
        <mxCell id="tiq8Vk0MEegw2YPeXYxS-97" value="" style="endArrow=none;html=1;rounded=0;fontSize=8;" edge="1" parent="1">
          <mxGeometry width="50" height="50" relative="1" as="geometry">
            <mxPoint x="180" y="-30" as="sourcePoint" />
            <mxPoint x="240" y="-30" as="targetPoint" />
          </mxGeometry>
        </mxCell>
        <mxCell id="tiq8Vk0MEegw2YPeXYxS-98" value="" style="endArrow=classic;html=1;rounded=0;fontSize=8;exitX=0;exitY=0.25;exitDx=0;exitDy=0;" edge="1" parent="1" source="tiq8Vk0MEegw2YPeXYxS-84">
          <mxGeometry width="50" height="50" relative="1" as="geometry">
            <mxPoint x="290" y="-110" as="sourcePoint" />
            <mxPoint x="240" y="-140" as="targetPoint" />
          </mxGeometry>
        </mxCell>
        <mxCell id="tiq8Vk0MEegw2YPeXYxS-100" value="" style="endArrow=classic;html=1;rounded=0;fontSize=8;entryX=1;entryY=0.5;entryDx=0;entryDy=0;" edge="1" parent="1" source="tiq8Vk0MEegw2YPeXYxS-84" target="tiq8Vk0MEegw2YPeXYxS-91">
          <mxGeometry width="50" height="50" relative="1" as="geometry">
            <mxPoint x="257.5" y="-30" as="sourcePoint" />
            <mxPoint x="307.5" y="-80" as="targetPoint" />
          </mxGeometry>
        </mxCell>
        <mxCell id="tiq8Vk0MEegw2YPeXYxS-101" value="" style="endArrow=classic;html=1;rounded=0;fontSize=8;exitX=0;exitY=0.75;exitDx=0;exitDy=0;entryX=1;entryY=0.5;entryDx=0;entryDy=0;" edge="1" parent="1" source="tiq8Vk0MEegw2YPeXYxS-84" target="tiq8Vk0MEegw2YPeXYxS-92">
          <mxGeometry width="50" height="50" relative="1" as="geometry">
            <mxPoint x="270" y="-10" as="sourcePoint" />
            <mxPoint x="320" y="-60" as="targetPoint" />
          </mxGeometry>
        </mxCell>
        <mxCell id="tiq8Vk0MEegw2YPeXYxS-102" value="&lt;font style=&quot;font-size: 8px;&quot;&gt;border-radius:&lt;/font&gt;" style="rounded=1;whiteSpace=wrap;html=1;fontSize=10;" vertex="1" parent="1">
          <mxGeometry x="181.5" y="-10" width="57.5" height="30" as="geometry" />
        </mxCell>
        <mxCell id="tiq8Vk0MEegw2YPeXYxS-104" value="" style="endArrow=classic;html=1;rounded=0;fontSize=8;" edge="1" parent="1" source="tiq8Vk0MEegw2YPeXYxS-84">
          <mxGeometry width="50" height="50" relative="1" as="geometry">
            <mxPoint x="270" y="40" as="sourcePoint" />
            <mxPoint x="240" as="targetPoint" />
          </mxGeometry>
        </mxCell>
        <mxCell id="tiq8Vk0MEegw2YPeXYxS-108" value="" style="edgeStyle=none;rounded=0;orthogonalLoop=1;jettySize=auto;html=1;fontSize=9;exitX=0;exitY=0.75;exitDx=0;exitDy=0;" edge="1" parent="1" source="tiq8Vk0MEegw2YPeXYxS-105" target="tiq8Vk0MEegw2YPeXYxS-107">
          <mxGeometry relative="1" as="geometry" />
        </mxCell>
        <mxCell id="tiq8Vk0MEegw2YPeXYxS-105" value="&lt;div align=&quot;left&quot;&gt;&lt;font style=&quot;font-size: 9px;&quot;&gt;border-style:&lt;/font&gt;&lt;/div&gt;" style="rounded=0;whiteSpace=wrap;html=1;fontSize=10;align=left;fillColor=#fad7ac;strokeColor=#b46504;" vertex="1" parent="1">
          <mxGeometry x="320" y="10" width="57.5" height="30" as="geometry" />
        </mxCell>
        <mxCell id="tiq8Vk0MEegw2YPeXYxS-107" value="&lt;div align=&quot;center&quot;&gt;none&lt;/div&gt;" style="whiteSpace=wrap;html=1;fontSize=10;align=center;rounded=0;fillColor=#fad7ac;strokeColor=none;" vertex="1" parent="1">
          <mxGeometry x="175.25" y="70" width="70" height="30" as="geometry" />
        </mxCell>
        <mxCell id="tiq8Vk0MEegw2YPeXYxS-109" value="dotted" style="whiteSpace=wrap;html=1;fontSize=10;align=center;rounded=0;dashed=1;dashPattern=1 4;fillColor=#fad7ac;strokeColor=#b46504;" vertex="1" parent="1">
          <mxGeometry x="257.5" y="70" width="70" height="30" as="geometry" />
        </mxCell>
        <mxCell id="tiq8Vk0MEegw2YPeXYxS-110" value="&lt;div&gt;dash&lt;/div&gt;" style="whiteSpace=wrap;html=1;fontSize=10;align=center;rounded=0;dashed=1;fillColor=#fad7ac;strokeColor=#b46504;" vertex="1" parent="1">
          <mxGeometry x="340" y="70" width="70" height="30" as="geometry" />
        </mxCell>
        <mxCell id="tiq8Vk0MEegw2YPeXYxS-111" value="groove" style="whiteSpace=wrap;html=1;fontSize=10;align=center;rounded=0;strokeWidth=2;fillColor=#fad7ac;strokeColor=#b46504;" vertex="1" parent="1">
          <mxGeometry x="420" y="70" width="70" height="30" as="geometry" />
        </mxCell>
        <mxCell id="tiq8Vk0MEegw2YPeXYxS-112" value="" style="endArrow=classic;html=1;rounded=0;fontSize=9;entryX=0.5;entryY=0;entryDx=0;entryDy=0;" edge="1" parent="1" source="tiq8Vk0MEegw2YPeXYxS-105" target="tiq8Vk0MEegw2YPeXYxS-109">
          <mxGeometry width="50" height="50" relative="1" as="geometry">
            <mxPoint x="490" y="30" as="sourcePoint" />
            <mxPoint x="540" y="-20" as="targetPoint" />
          </mxGeometry>
        </mxCell>
        <mxCell id="tiq8Vk0MEegw2YPeXYxS-113" value="" style="endArrow=classic;html=1;rounded=0;fontSize=9;entryX=0.5;entryY=0;entryDx=0;entryDy=0;" edge="1" parent="1" target="tiq8Vk0MEegw2YPeXYxS-110">
          <mxGeometry width="50" height="50" relative="1" as="geometry">
            <mxPoint x="357.5" y="40" as="sourcePoint" />
            <mxPoint x="320" y="70" as="targetPoint" />
          </mxGeometry>
        </mxCell>
        <mxCell id="tiq8Vk0MEegw2YPeXYxS-114" value="" style="endArrow=classic;html=1;rounded=0;fontSize=9;entryX=0.5;entryY=0;entryDx=0;entryDy=0;exitX=1;exitY=0.75;exitDx=0;exitDy=0;" edge="1" parent="1" source="tiq8Vk0MEegw2YPeXYxS-105" target="tiq8Vk0MEegw2YPeXYxS-111">
          <mxGeometry width="50" height="50" relative="1" as="geometry">
            <mxPoint x="380" y="40" as="sourcePoint" />
            <mxPoint x="341.25" y="50" as="targetPoint" />
          </mxGeometry>
        </mxCell>
        <mxCell id="tiq8Vk0MEegw2YPeXYxS-116" value="hidden" style="whiteSpace=wrap;html=1;fontSize=10;align=center;rounded=0;fillColor=#fad7ac;strokeColor=none;" vertex="1" parent="1">
          <mxGeometry x="175.25" y="110" width="70" height="30" as="geometry" />
        </mxCell>
        <mxCell id="tiq8Vk0MEegw2YPeXYxS-117" value="" style="endArrow=none;html=1;rounded=0;fontSize=9;exitX=0.5;exitY=0;exitDx=0;exitDy=0;" edge="1" parent="1" source="tiq8Vk0MEegw2YPeXYxS-116">
          <mxGeometry width="50" height="50" relative="1" as="geometry">
            <mxPoint x="160" y="150" as="sourcePoint" />
            <mxPoint x="210" y="100" as="targetPoint" />
          </mxGeometry>
        </mxCell>
        <mxCell id="tiq8Vk0MEegw2YPeXYxS-125" value="" style="edgeStyle=none;rounded=0;orthogonalLoop=1;jettySize=auto;html=1;fontSize=9;" edge="1" parent="1" source="tiq8Vk0MEegw2YPeXYxS-118" target="tiq8Vk0MEegw2YPeXYxS-124">
          <mxGeometry relative="1" as="geometry" />
        </mxCell>
        <mxCell id="tiq8Vk0MEegw2YPeXYxS-118" value="Margem" style="ellipse;whiteSpace=wrap;html=1;fillColor=#1ba1e2;fontColor=#ffffff;strokeColor=#006EAF;" vertex="1" parent="1">
          <mxGeometry x="689" y="-90" width="90" height="50" as="geometry" />
        </mxCell>
        <mxCell id="tiq8Vk0MEegw2YPeXYxS-120" value="" style="shape=flexArrow;endArrow=classic;html=1;rounded=0;fontSize=12;width=6;endSize=5.79;entryX=0.5;entryY=0;entryDx=0;entryDy=0;" edge="1" parent="1" source="tiq8Vk0MEegw2YPeXYxS-1" target="tiq8Vk0MEegw2YPeXYxS-118">
          <mxGeometry width="50" height="50" relative="1" as="geometry">
            <mxPoint x="730.7073889147863" y="-270.8439393078868" as="sourcePoint" />
            <mxPoint x="549.2999071682483" y="-99.99740034056845" as="targetPoint" />
          </mxGeometry>
        </mxCell>
        <mxCell id="tiq8Vk0MEegw2YPeXYxS-121" value="" style="shape=flexArrow;endArrow=classic;html=1;rounded=0;fontSize=12;width=6;endSize=5.79;" edge="1" parent="1" target="tiq8Vk0MEegw2YPeXYxS-123">
          <mxGeometry width="50" height="50" relative="1" as="geometry">
            <mxPoint x="732.691916255124" y="-349.9987312853293" as="sourcePoint" />
            <mxPoint x="730" y="-440" as="targetPoint" />
          </mxGeometry>
        </mxCell>
        <mxCell id="tiq8Vk0MEegw2YPeXYxS-122" value="" style="endArrow=classic;html=1;rounded=0;fontSize=12;exitX=0.5;exitY=0;exitDx=0;exitDy=0;" edge="1" parent="1" source="tiq8Vk0MEegw2YPeXYxS-12" target="tiq8Vk0MEegw2YPeXYxS-16">
          <mxGeometry width="50" height="50" relative="1" as="geometry">
            <mxPoint x="463.49" y="-505" as="sourcePoint" />
            <mxPoint x="479.9982260714512" y="-600.0763487606305" as="targetPoint" />
          </mxGeometry>
        </mxCell>
        <mxCell id="tiq8Vk0MEegw2YPeXYxS-127" value="" style="edgeStyle=none;rounded=0;orthogonalLoop=1;jettySize=auto;html=1;fontSize=9;" edge="1" parent="1" source="tiq8Vk0MEegw2YPeXYxS-123" target="tiq8Vk0MEegw2YPeXYxS-126">
          <mxGeometry relative="1" as="geometry" />
        </mxCell>
        <mxCell id="tiq8Vk0MEegw2YPeXYxS-123" value="Padding" style="ellipse;whiteSpace=wrap;html=1;fillColor=#1ba1e2;fontColor=#ffffff;strokeColor=#006EAF;" vertex="1" parent="1">
          <mxGeometry x="689" y="-490" width="90" height="50" as="geometry" />
        </mxCell>
        <mxCell id="tiq8Vk0MEegw2YPeXYxS-138" value="" style="edgeStyle=none;rounded=0;orthogonalLoop=1;jettySize=auto;html=1;fontSize=9;" edge="1" parent="1" source="tiq8Vk0MEegw2YPeXYxS-124" target="tiq8Vk0MEegw2YPeXYxS-137">
          <mxGeometry relative="1" as="geometry" />
        </mxCell>
        <mxCell id="tiq8Vk0MEegw2YPeXYxS-124" value="EspaÃ§amento externo" style="whiteSpace=wrap;html=1;fillColor=#1ba1e2;strokeColor=#006EAF;fontColor=#ffffff;" vertex="1" parent="1">
          <mxGeometry x="674" y="-5" width="120" height="60" as="geometry" />
        </mxCell>
        <mxCell id="tiq8Vk0MEegw2YPeXYxS-131" value="" style="edgeStyle=none;rounded=0;orthogonalLoop=1;jettySize=auto;html=1;fontSize=9;entryX=0.5;entryY=1;entryDx=0;entryDy=0;" edge="1" parent="1" source="tiq8Vk0MEegw2YPeXYxS-126" target="tiq8Vk0MEegw2YPeXYxS-132">
          <mxGeometry relative="1" as="geometry" />
        </mxCell>
        <mxCell id="tiq8Vk0MEegw2YPeXYxS-126" value="EspaÃ§amento interno" style="whiteSpace=wrap;html=1;fillColor=#1ba1e2;strokeColor=#006EAF;fontColor=#ffffff;" vertex="1" parent="1">
          <mxGeometry x="674" y="-590" width="120" height="60" as="geometry" />
        </mxCell>
        <mxCell id="tiq8Vk0MEegw2YPeXYxS-130" value="padding-top:" style="whiteSpace=wrap;html=1;fillColor=#b1ddf0;strokeColor=#10739e;" vertex="1" parent="1">
          <mxGeometry x="674" y="-800" width="120" height="60" as="geometry" />
        </mxCell>
        <mxCell id="tiq8Vk0MEegw2YPeXYxS-132" value="padding-bottom:" style="whiteSpace=wrap;html=1;fillColor=#b1ddf0;strokeColor=#10739e;" vertex="1" parent="1">
          <mxGeometry x="674" y="-680" width="120" height="60" as="geometry" />
        </mxCell>
        <mxCell id="tiq8Vk0MEegw2YPeXYxS-133" value="padding-left:" style="whiteSpace=wrap;html=1;fillColor=#b1ddf0;strokeColor=#10739e;" vertex="1" parent="1">
          <mxGeometry x="540" y="-740" width="120" height="60" as="geometry" />
        </mxCell>
        <mxCell id="tiq8Vk0MEegw2YPeXYxS-134" value="padding-right:" style="whiteSpace=wrap;html=1;fillColor=#b1ddf0;strokeColor=#10739e;" vertex="1" parent="1">
          <mxGeometry x="810" y="-740" width="120" height="60" as="geometry" />
        </mxCell>
        <mxCell id="tiq8Vk0MEegw2YPeXYxS-135" value="" style="endArrow=none;html=1;rounded=0;fontSize=9;startArrow=none;" edge="1" parent="1" target="tiq8Vk0MEegw2YPeXYxS-130">
          <mxGeometry width="50" height="50" relative="1" as="geometry">
            <mxPoint x="734" y="-680" as="sourcePoint" />
            <mxPoint x="730" y="-740" as="targetPoint" />
          </mxGeometry>
        </mxCell>
        <mxCell id="tiq8Vk0MEegw2YPeXYxS-136" value="" style="endArrow=none;html=1;rounded=0;fontSize=9;exitX=1;exitY=0.5;exitDx=0;exitDy=0;entryX=0;entryY=0.5;entryDx=0;entryDy=0;" edge="1" parent="1" source="tiq8Vk0MEegw2YPeXYxS-133" target="tiq8Vk0MEegw2YPeXYxS-134">
          <mxGeometry x="0.6667" y="44" width="50" height="50" relative="1" as="geometry">
            <mxPoint x="744" y="-670" as="sourcePoint" />
            <mxPoint x="744" y="-730" as="targetPoint" />
            <mxPoint y="1" as="offset" />
          </mxGeometry>
        </mxCell>
        <mxCell id="tiq8Vk0MEegw2YPeXYxS-137" value="margin-top:" style="whiteSpace=wrap;html=1;fillColor=#b1ddf0;strokeColor=#10739e;" vertex="1" parent="1">
          <mxGeometry x="674" y="135" width="120" height="60" as="geometry" />
        </mxCell>
        <mxCell id="tiq8Vk0MEegw2YPeXYxS-140" value="margin-bottom:" style="whiteSpace=wrap;html=1;fillColor=#b1ddf0;strokeColor=#10739e;" vertex="1" parent="1">
          <mxGeometry x="674" y="270" width="120" height="60" as="geometry" />
        </mxCell>
        <mxCell id="tiq8Vk0MEegw2YPeXYxS-141" value="margin-right:" style="whiteSpace=wrap;html=1;fillColor=#b1ddf0;strokeColor=#10739e;" vertex="1" parent="1">
          <mxGeometry x="810" y="200" width="120" height="60" as="geometry" />
        </mxCell>
        <mxCell id="tiq8Vk0MEegw2YPeXYxS-142" value="margin-left:" style="whiteSpace=wrap;html=1;fillColor=#b1ddf0;strokeColor=#10739e;" vertex="1" parent="1">
          <mxGeometry x="540" y="200" width="120" height="60" as="geometry" />
        </mxCell>
        <mxCell id="tiq8Vk0MEegw2YPeXYxS-146" value="conteÃºdo" style="swimlane;horizontal=0;whiteSpace=wrap;html=1;rounded=1;strokeColor=default;strokeWidth=2;fontSize=9;fillColor=#FFFFFF;startSize=40;rotation=-180;" vertex="1" parent="1">
          <mxGeometry x="460" y="195" width="70" height="45" as="geometry" />
        </mxCell>
        <mxCell id="tiq8Vk0MEegw2YPeXYxS-147" value="conteÃºdo" style="swimlane;horizontal=0;whiteSpace=wrap;html=1;rounded=1;strokeColor=default;strokeWidth=2;fontSize=9;fillColor=#FFFFFF;startSize=40;rotation=90;" vertex="1" parent="1">
          <mxGeometry x="709" y="350" width="70" height="45" as="geometry" />
        </mxCell>
        <mxCell id="tiq8Vk0MEegw2YPeXYxS-148" value="conteÃºdo" style="swimlane;horizontal=0;whiteSpace=wrap;html=1;rounded=1;strokeColor=default;strokeWidth=2;fontSize=9;fillColor=#FFFFFF;startSize=40;rotation=0;" vertex="1" parent="1">
          <mxGeometry x="945" y="207.5" width="70" height="45" as="geometry" />
        </mxCell>
        <mxCell id="tiq8Vk0MEegw2YPeXYxS-149" value="conteÃºdo" style="swimlane;horizontal=0;whiteSpace=wrap;html=1;rounded=1;strokeColor=default;strokeWidth=2;fontSize=9;fillColor=#FFFFFF;startSize=40;rotation=-90;" vertex="1" parent="1">
          <mxGeometry x="745" y="80" width="60" height="45" as="geometry" />
        </mxCell>
        <mxCell id="tiq8Vk0MEegw2YPeXYxS-150" value="&lt;div style=&quot;font-size: 14px;&quot;&gt;&lt;br style=&quot;font-size: 14px;&quot;&gt;&lt;/div&gt;&lt;div style=&quot;font-size: 14px;&quot;&gt;&amp;nbsp;&amp;nbsp;&amp;nbsp;&amp;nbsp;&amp;nbsp; Conteudo&lt;br style=&quot;font-size: 14px;&quot;&gt;&lt;/div&gt;" style="rounded=1;whiteSpace=wrap;html=1;strokeColor=default;strokeWidth=2;fontSize=14;fillColor=#FFFFFF;align=left;" vertex="1" parent="1">
          <mxGeometry x="425" y="-735" width="90" height="50" as="geometry" />
        </mxCell>
        <mxCell id="tiq8Vk0MEegw2YPeXYxS-151" value="Conteudo&amp;nbsp;&amp;nbsp;&amp;nbsp;&amp;nbsp;&amp;nbsp;&amp;nbsp; " style="rounded=1;whiteSpace=wrap;html=1;strokeColor=default;strokeWidth=2;fontSize=14;fillColor=#FFFFFF;align=left;" vertex="1" parent="1">
          <mxGeometry x="950" y="-740" width="90" height="50" as="geometry" />
        </mxCell>
        <mxCell id="tiq8Vk0MEegw2YPeXYxS-153" value="&lt;div align=&quot;center&quot;&gt;&lt;br&gt;&lt;/div&gt;&lt;div align=&quot;center&quot;&gt;&lt;br&gt;&lt;/div&gt;&lt;div align=&quot;center&quot;&gt;Conteudo&lt;/div&gt;" style="rounded=1;whiteSpace=wrap;html=1;strokeColor=default;strokeWidth=2;fontSize=14;fillColor=#FFFFFF;align=center;" vertex="1" parent="1">
          <mxGeometry x="689" y="-870" width="90" height="50" as="geometry" />
        </mxCell>
        <mxCell id="tiq8Vk0MEegw2YPeXYxS-152" value="&lt;div align=&quot;center&quot;&gt;Conteudo&lt;/div&gt;&lt;div align=&quot;center&quot;&gt;&lt;br&gt;&lt;/div&gt;&lt;div align=&quot;center&quot;&gt;&lt;br&gt;&lt;/div&gt;" style="rounded=1;whiteSpace=wrap;html=1;strokeColor=default;strokeWidth=2;fontSize=14;fillColor=#FFFFFF;align=center;" vertex="1" parent="1">
          <mxGeometry x="794" y="-650" width="90" height="50" as="geometry" />
        </mxCell>
        <mxCell id="tiq8Vk0MEegw2YPeXYxS-154" value="" style="endArrow=none;html=1;rounded=0;fontSize=9;" edge="1" parent="1" source="tiq8Vk0MEegw2YPeXYxS-132" target="tiq8Vk0MEegw2YPeXYxS-152">
          <mxGeometry width="50" height="50" relative="1" as="geometry">
            <mxPoint x="734" y="-680" as="sourcePoint" />
            <mxPoint x="734" y="-740" as="targetPoint" />
          </mxGeometry>
        </mxCell>
      </root>
    </mxGraphModel>
  </diagram>
</mxfile>
